<?xml version="1.0" encoding="utf-8"?><svg xmlns="http://www.w3.org/2000/svg" xmlns:xlink="http://www.w3.org/1999/xlink"><symbol viewBox="0 0 24 25" id="caret-down-icon" xmlns="http://www.w3.org/2000/svg"><path fill-rule="evenodd" clip-rule="evenodd" d="M18.53 8.97a.75.75 0 00-1.06 0L12 14.44 6.53 8.97a.75.75 0 10-1.06 1.06l6 6a.75.75 0 001.06 0l6-6a.75.75 0 000-1.06z"/></symbol><symbol viewBox="0 0 24 24" id="caret-right-icon" xmlns="http://www.w3.org/2000/svg"><path fill-rule="evenodd" clip-rule="evenodd" d="M8.47 18.53a.75.75 0 010-1.06L13.94 12 8.47 6.53a.75.75 0 111.06-1.06l6 6a.75.75 0 010 1.06l-6 6a.75.75 0 01-1.06 0z"/></symbol><symbol viewBox="0 0 24 24" id="caret-up-icon" xmlns="http://www.w3.org/2000/svg"><path fill-rule="evenodd" clip-rule="evenodd" d="M18.53 15.53a.75.75 0 01-1.06 0L12 10.06l-5.47 5.47a.75.75 0 11-1.06-1.06l6-6a.75.75 0 011.06 0l6 6a.75.75 0 010 1.06z"/></symbol><symbol fill="none" viewBox="0 0 24 24" id="clock-icon" xmlns="http://www.w3.org/2000/svg"><path fill-rule="evenodd" clip-rule="evenodd" d="M5.53 1.47a.75.75 0 010 1.06l-3 3a.75.75 0 01-1.06-1.06l3-3a.75.75 0 011.06 0zM3.75 12a8.25 8.25 0 1116.5 0 8.25 8.25 0 01-16.5 0zM12 2.25c-5.385 0-9.75 4.365-9.75 9.75s4.365 9.75 9.75 9.75 9.75-4.365 9.75-9.75S17.385 2.25 12 2.25zM12.75 8a.75.75 0 00-1.5 0v4c0 .25.125.485.334.624l3 2a.75.75 0 10.832-1.248l-2.666-1.777V8zm5.72-5.47a.75.75 0 011.06-1.06l3 3a.75.75 0 01-1.06 1.06l-3-3z" fill="#12266B"/></symbol><symbol viewBox="0 0 24 24" id="close-icon" xmlns="http://www.w3.org/2000/svg"><path fill-rule="evenodd" clip-rule="evenodd" d="M5.47 5.47a.75.75 0 011.06 0L12 10.94l5.47-5.47a.75.75 0 111.06 1.06L13.06 12l5.47 5.47a.75.75 0 11-1.06 1.06L12 13.06l-5.47 5.47a.75.75 0 01-1.06-1.06L10.94 12 5.47 6.53a.75.75 0 010-1.06z"/></symbol><symbol fill="none" viewBox="0 0 20 21" id="facebook-icon" xmlns="http://www.w3.org/2000/svg"><path d="M0 5.233A4.444 4.444 0 014.444.788h11.112A4.444 4.444 0 0120 5.233v11.11a4.444 4.444 0 01-4.444 4.445h-2.192v-8.194h2.195l.234-2.744h-2.429V8.288c0-.647.125-.903.726-.903h1.703V4.538h-2.179c-2.34 0-3.396 1.072-3.396 3.125V9.85H8.58v2.778h1.637v8.16H4.444A4.444 4.444 0 010 16.344V5.233z" fill="#12266B"/></symbol><symbol fill="none" viewBox="0 0 24 24" id="info-icon" xmlns="http://www.w3.org/2000/svg"><path fill-rule="evenodd" clip-rule="evenodd" d="M12 3.75a8.25 8.25 0 100 16.5 8.25 8.25 0 000-16.5zM2.25 12c0-5.385 4.365-9.75 9.75-9.75s9.75 4.365 9.75 9.75-4.365 9.75-9.75 9.75S2.25 17.385 2.25 12zM12 10.25a.75.75 0 01.75.75v5a.75.75 0 01-1.5 0v-5a.75.75 0 01.75-.75zM12 9a1 1 0 100-2 1 1 0 000 2z" fill="#1B389E"/></symbol><symbol fill="none" viewBox="0 0 20 21" id="instagram-icon" xmlns="http://www.w3.org/2000/svg"><path d="M9.991 14.71a3.646 3.646 0 110-7.292 3.646 3.646 0 010 7.292z" fill="#12266B"/><path fill-rule="evenodd" clip-rule="evenodd" d="M0 7.01A6.222 6.222 0 016.222.788h7.556A6.222 6.222 0 0120 7.01v7.556a6.222 6.222 0 01-6.222 6.222H6.222A6.222 6.222 0 010 14.566V7.01zm9.991-1.562a5.616 5.616 0 100 11.233 5.616 5.616 0 000-11.233zm5.839 1.09a1.313 1.313 0 100-2.625 1.313 1.313 0 000 2.625z" fill="#12266B"/></symbol><symbol fill="none" viewBox="0 0 24 24" id="level-1" xmlns="http://www.w3.org/2000/svg"><path fill-rule="evenodd" clip-rule="evenodd" d="M12.79 9.079c0-.61-.449-1.105-1-1.105-.553 0-1 .494-1 1.105v8.842c0 .61.447 1.105 1 1.105.551 0 1-.495 1-1.105V9.079z" fill="#ADBBE9"/><path d="M19.21 6.079c0-.61-.447-1.105-1-1.105-.551 0-1 .494-1 1.105v11.79c0 .61.449 1.105 1 1.105.553 0 1-.495 1-1.106V6.078z" fill="#ADBBE9"/><path d="M5.79 10.868c.551 0 1 .495 1 1.106v5.894c0 .61-.449 1.106-1 1.106-.553 0-1-.495-1-1.106v-5.894c0-.61.447-1.106 1-1.106z" fill="#12266B"/></symbol><symbol fill="none" viewBox="0 0 24 24" id="level-2" xmlns="http://www.w3.org/2000/svg"><path fill-rule="evenodd" clip-rule="evenodd" d="M12.79 9.079c0-.61-.449-1.105-1-1.105-.553 0-1 .494-1 1.105v8.842c0 .61.447 1.105 1 1.105.551 0 1-.495 1-1.105V9.079z" fill="#12266B"/><path d="M19.21 6.079c0-.61-.447-1.105-1-1.105-.551 0-1 .494-1 1.105v11.79c0 .61.449 1.105 1 1.105.553 0 1-.495 1-1.106V6.078z" fill="#ADBBE9"/><path d="M5.79 10.868c.551 0 1 .495 1 1.106v5.894c0 .61-.449 1.106-1 1.106-.553 0-1-.495-1-1.106v-5.894c0-.61.447-1.106 1-1.106z" fill="#12266B"/></symbol><symbol fill="none" viewBox="0 0 24 24" id="level-3" xmlns="http://www.w3.org/2000/svg"><path fill-rule="evenodd" clip-rule="evenodd" d="M12.79 9.079c0-.61-.449-1.105-1-1.105-.553 0-1 .494-1 1.105v8.842c0 .61.447 1.105 1 1.105.551 0 1-.495 1-1.105V9.079z" fill="#12266B"/><path d="M19.21 6.079c0-.61-.447-1.105-1-1.105-.551 0-1 .494-1 1.105v11.79c0 .61.449 1.105 1 1.105.553 0 1-.495 1-1.106V6.078zM5.79 10.868c.551 0 1 .495 1 1.106v5.894c0 .61-.449 1.106-1 1.106-.553 0-1-.495-1-1.106v-5.894c0-.61.447-1.106 1-1.106z" fill="#12266B"/></symbol><symbol fill="none" viewBox="0 0 166 68" id="logo" xmlns="http://www.w3.org/2000/svg"><path d="M75.91 28.386h-6.925l-1.286 3.17h-4.725l7.229-16.31h4.56l7.254 16.31h-4.82l-1.287-3.17zm-1.357-3.401l-2.104-5.217-2.104 5.217h4.208zM95.472 24.612c.515.683.773 1.468.773 2.353a3.76 3.76 0 01-1.03 2.633c-.685.746-1.614 1.317-2.784 1.713-1.169.395-2.457.593-3.861.593-1.108 0-2.235-.132-3.382-.396a14.385 14.385 0 01-3.286-1.188l1.38-3.215c.733.374 1.517.656 2.352.851.834.195 1.641.291 2.422.291 1.03 0 1.872-.168 2.527-.501.654-.334.982-.804.982-1.409 0-.482-.202-.84-.608-1.072-.406-.232-.951-.349-1.638-.349h-4.187V21.54h3.813c.624 0 1.107-.124 1.45-.374.344-.248.516-.582.516-1.002 0-.527-.265-.936-.796-1.223-.531-.288-1.217-.432-2.06-.432-.686 0-1.41.098-2.176.293a10.11 10.11 0 00-2.177.826l-1.357-3.494c1.747-.838 3.665-1.258 5.757-1.258 1.341 0 2.585.19 3.731.57 1.148.38 2.06.928 2.74 1.643a3.568 3.568 0 011.017 2.539c0 .762-.2 1.441-.598 2.039-.397.598-.946 1.068-1.649 1.409.904.343 1.614.854 2.13 1.537zM98.07 15.248h13.689v3.565h-9.126v2.632h4.235c1.98 0 3.503.42 4.564 1.258 1.06.84 1.592 2.042 1.592 3.611 0 1.646-.594 2.932-1.78 3.856-1.186.924-2.846 1.387-4.985 1.387h-8.19l.002-16.31zm7.886 13c.78 0 1.373-.156 1.78-.466.405-.312.608-.754.608-1.33 0-1.148-.797-1.723-2.388-1.723h-3.323v3.519h3.323zM129.638 15.248l-6.787 12.603c-.717 1.352-1.595 2.378-2.633 3.076a5.97 5.97 0 01-3.404 1.048c-.906 0-1.872-.203-2.902-.606l1.1-3.402c.64.186 1.185.28 1.637.28.454 0 .855-.1 1.206-.302.351-.201.674-.52.972-.955l-6.366-11.742h4.891l3.814 7.875 3.955-7.875h4.517zM137.055 25.312h-2.105v6.244h-4.609V15.247h4.609v6.337h2.223l3.908-6.337h4.868l-5.124 7.875 5.171 8.433h-5.218l-3.723-6.243zM159.893 28.386h-6.926l-1.287 3.17h-4.728l7.231-16.31h4.563L166 31.556h-4.821l-1.286-3.17zm-1.357-3.401l-2.105-5.218-2.107 5.218h4.212zM68.038 51.879c-1.362-.723-2.435-1.726-3.215-3.017-.78-1.289-1.17-2.748-1.17-4.379 0-1.63.39-3.09 1.17-4.38.78-1.29 1.852-2.295 3.215-3.017 1.365-.722 2.906-1.082 4.62-1.082 1.497 0 2.845.263 4.048.792a7.76 7.76 0 012.995 2.282l-2.948 2.656c-1.061-1.275-2.347-1.91-3.86-1.91-.889 0-1.68.194-2.374.581a4.074 4.074 0 00-1.615 1.643c-.382.708-.572 1.519-.572 2.435 0 .917.19 1.728.572 2.434a4.053 4.053 0 001.615 1.643c.693.389 1.485.582 2.374.582 1.513 0 2.799-.637 3.86-1.911l2.948 2.655a7.77 7.77 0 01-2.995 2.285c-1.201.527-2.55.792-4.048.792-1.715 0-3.255-.36-4.62-1.084zM94.35 49.071v3.566H81.198V36.33h12.848v3.563h-8.26v2.75h7.277v3.447h-7.278v2.981h8.565zM110.462 45.553c.506.653.759 1.461.759 2.424 0 1.444-.566 2.582-1.696 3.414-1.131.83-2.734 1.245-4.81 1.245h-8.401V36.33h7.956c1.965 0 3.49.367 4.575 1.105 1.084.737 1.626 1.782 1.626 3.134 0 .792-.192 1.49-.572 2.097-.383.604-.934 1.087-1.651 1.442.968.313 1.707.793 2.214 1.445zm-9.583-2.701h2.948c1.31 0 1.965-.537 1.965-1.608 0-1.07-.654-1.608-1.965-1.608h-2.948v3.216zm5.662 4.775c0-1.102-.669-1.654-2.013-1.654h-3.65v3.354h3.65c1.344 0 2.013-.566 2.013-1.7zM126.199 49.071v3.566h-13.153V36.33h12.848v3.563h-8.261v2.75h7.277v3.447h-7.277v2.981h8.566zM139.513 37.062c1.092.49 1.934 1.188 2.526 2.097.593.909.89 1.976.89 3.203 0 1.227-.297 2.291-.89 3.191-.593.903-1.434 1.598-2.526 2.086-1.091.49-2.379.734-3.861.734h-2.855v4.264h-4.633V36.33h7.488c1.482 0 2.77.243 3.861.732zm-1.99 7.059c.484-.41.726-.998.726-1.759 0-.761-.242-1.351-.726-1.771-.484-.418-1.2-.629-2.151-.629h-2.574v4.776h2.574c.951.002 1.668-.204 2.151-.617zM153.186 49.469h-6.927l-1.286 3.167h-4.727l7.229-16.306h4.563l7.255 16.306h-4.82l-1.287-3.167zm-1.357-3.402l-2.106-5.219-2.106 5.219h4.212zM35.902 23.016c4.108 0 7.449-3.273 7.449-7.297 0-4.024-3.341-7.298-7.45-7.298-4.107 0-7.448 3.274-7.448 7.298 0 4.023 3.341 7.297 7.449 7.297zm-5.938-7.618c1.743-.405 5.172-.93 9.409-.188 0 0 0-1.99-.497-3.087 0 0 1.66 1.077 2.01 3.289 0 0 .439.075.96.204l.003.103c0 3.212-2.667 5.827-5.946 5.827s-5.947-2.615-5.947-5.827a4.683 4.683 0 01.009-.321z" fill="#12266B"/><path d="M35.902 19.993a3.81 3.81 0 003.215-1.744h-6.43a3.813 3.813 0 003.215 1.744z" fill="#12266B"/><path d="M28.257 56.361a53.613 53.613 0 01-7.562-1.638 12.638 12.638 0 00.045-1.973l.005-.173c0-.103.002-.207.008-.314a36.96 36.96 0 00-.088-3.153c.014.032.03.063.044.096a28.87 28.87 0 00-.038-.532c1.293-3.862 2.402-8.638 4.404-22.981a59.505 59.505 0 01-2.157-.669c-.117.84-.23 1.648-.342 2.425-2.741-.787-5.9-2.198-7.408-3.122a134.583 134.583 0 00-2.68-7.517c2.378 1.531 6.679 3.764 11.563 3.764.309 0 .615-.01.918-.029 1.996 4.014 6.201 6.788 11.058 6.788 3.587 0 6.818-1.513 9.067-3.922 1.426.718 6.132 3.579 7.022 10.37.845 6.45-2.614 10.663-4.39 12.362l-3.694-5.182c1.118-1.427 3.21-4.773 1.799-8.43-.706.335-1.5.633-1.966.8 1.269 3.442-1.909 6.824-1.94 6.857l-.597.617.39.549c-1.176 1.04-2.62 2.01-2.62 2.01-.08.8.565 1.32.743 1.445-.535.466-1.001.865-1.177 1.016l-.03.017a.125.125 0 00-.042.046l-.004.003h.003c-.268.442.18 3.533 3.503 4.452a3.982 3.982 0 002.035.036h.002C45.681 50.034 47 48.73 47 48.73l.353.466.88-.704c1.689-1.352 7.11-6.427 5.992-14.977-.96-7.342-5.748-10.671-7.818-11.785a11.788 11.788 0 001.91-6.44c0-6.64-5.514-12.042-12.29-12.042-6.777 0-12.291 5.403-12.291 12.042 0 1.106.153 2.178.44 3.196l-.099.002c-5.33 0-10.594-3.378-12.373-4.638a16.214 16.214 0 01-.32-.23c-.558-.434-1.638-1.428-1.558-2.568.077-.644.542-1.239 1.44-1.286 0 0 1.243 1.22 1.76 1.495 2.664-1.545 4.451-4.387 4.451-7.642A8.7 8.7 0 0016.69 0c-.001 0-6.419.889-7.951 8.858C7.206.889.789 0 .788 0A8.687 8.687 0 000 3.62c0 3.739 2.358 6.936 5.696 8.246v.008h.022s3.932.106 4.234 4.178c.302 4.073-4.256 5.876-4.256 5.876v44.115c.668.103 1.351.159 2.05.159 5.972 0 11.006-3.943 12.537-9.316a55.623 55.623 0 007.27 1.58v3.402s.072.482-.444.886c-.517.404-3.745 2.628-3.745 2.628l.001.001a1.408 1.408 0 00-.676 1.198c0 .784.647 1.419 1.447 1.419h5.403v-1.162c0-.476.39-.895.576-1.067l.098-.085 1.432-1.25c.336-.293.46-.59.504-.737.03-.114.05-.242.05-.383v-4.379c.658.034 1.367.06 2.117.067v4.816s-.016.698-.28.9l-.001.001-.297.227-1.235.931c-.035.025-.068.05-.1.077l-.006.003c-.259.22-.423.543-.423.906 0 .66.445 1.135 1.12 1.135a.938.938 0 00.083-.005v.001h9.451c.022.002.042.004.064.004.02 0 .042-.002.064-.004h.028c.757-.047 1.356-.662 1.356-1.415v-8.446c.275-.056.55-.113.827-.175a37.105 37.105 0 006.31-2.068l-.902-1.999c-8.055 3.491-16.473 3.269-22.118 2.468zm7.768-51.18c5.69 0 10.32 4.535 10.32 10.11 0 5.574-4.63 10.109-10.32 10.109s-10.318-4.535-10.318-10.11c0-5.574 4.629-10.109 10.318-10.109zM9.96 61.384c-.942 0-1.706-.75-1.706-1.671 0-.923.763-1.672 1.706-1.672.942 0 1.706.749 1.706 1.672 0 .922-.764 1.67-1.706 1.67zm9.972-18.4a99.174 99.174 0 00-.919-4.67l-.002.032c-.815-3.74-1.845-7.559-2.931-11.125 1.335.638 4.173 1.751 6.192 2.314-.942 6.425-1.672 10.5-2.34 13.45z" fill="#12266B"/></symbol><symbol fill="none" viewBox="0 0 24 24" id="phone-icon" xmlns="http://www.w3.org/2000/svg"><path fill-rule="evenodd" clip-rule="evenodd" d="M11.958 1.25h.084c1.369 0 2.454 0 3.32.088.888.09 1.629.28 2.277.713.519.346.964.791 1.31 1.31.434.648.623 1.39.713 2.277.088.866.088 1.951.088 3.32v6.084c0 1.369 0 2.454-.088 3.32-.09.888-.28 1.629-.712 2.277a4.753 4.753 0 01-1.311 1.31c-.648.434-1.39.623-2.277.713-.866.088-1.951.088-3.32.088h-.084c-1.369 0-2.454 0-3.32-.088-.888-.09-1.629-.28-2.277-.712a4.751 4.751 0 01-1.31-1.311c-.434-.648-.623-1.39-.713-2.277-.088-.866-.088-1.951-.088-3.32V8.958c0-1.369 0-2.454.088-3.32.09-.888.28-1.629.713-2.277a4.75 4.75 0 011.31-1.31c.648-.434 1.39-.623 2.277-.713.866-.088 1.951-.088 3.32-.088zM8.79 2.83c-.77.079-1.235.227-1.596.468a3.25 3.25 0 00-.896.896c-.241.361-.39.827-.468 1.596-.08.781-.08 1.79-.08 3.21v6c0 1.42 0 2.429.08 3.21.079.77.227 1.235.468 1.596.237.354.542.66.896.896.361.241.827.39 1.596.468.781.08 1.79.08 3.21.08s2.429 0 3.21-.08c.77-.079 1.235-.227 1.596-.468.354-.237.66-.542.896-.896.241-.361.39-.827.468-1.596.08-.781.08-1.79.08-3.21V9c0-1.42 0-2.429-.08-3.21-.079-.77-.227-1.235-.468-1.596a3.25 3.25 0 00-.896-.896c-.361-.241-.827-.39-1.596-.468-.781-.08-1.79-.08-3.21-.08s-2.429 0-3.21.08zM12 19a1 1 0 100-2 1 1 0 000 2z" fill="#12266B"/></symbol><symbol fill="none" viewBox="0 0 18 21" id="place-icon" xmlns="http://www.w3.org/2000/svg"><path fill-rule="evenodd" clip-rule="evenodd" d="M1.75 9.148c0-2.517.92-4.348 2.253-5.555C5.35 2.374 7.163 1.75 9 1.75c1.836 0 3.65.624 4.997 1.843C15.33 4.8 16.25 6.631 16.25 9.148c0 3.274-1.965 6.136-3.982 8.197-.727.743-1.193 1.214-1.67 1.52-.431.276-.885.423-1.598.423-.712 0-1.166-.147-1.598-.424-.476-.305-.942-.776-1.67-1.519-2.017-2.061-3.982-4.923-3.982-8.197zm16 0c0-2.915-1.08-5.158-2.747-6.667C13.35.984 11.163.25 9 .25c-2.164 0-4.35.734-6.003 2.231C1.33 3.99.25 6.233.25 9.148c0 3.866 2.3 7.09 4.41 9.246l.047.048c.667.682 1.25 1.277 1.886 1.685.697.447 1.437.661 2.407.661s1.711-.214 2.408-.66c.636-.409 1.218-1.004 1.886-1.686l.046-.048c2.11-2.156 4.41-5.38 4.41-9.246zM6.75 9a2.25 2.25 0 114.5 0 2.25 2.25 0 01-4.5 0zM9 5.25a3.75 3.75 0 100 7.5 3.75 3.75 0 000-7.5z" fill="#12266B"/></symbol><symbol fill="none" viewBox="0 0 20 21" id="telegram-icon" xmlns="http://www.w3.org/2000/svg"><path fill-rule="evenodd" clip-rule="evenodd" d="M10 20.788c5.523 0 10-4.477 10-10s-4.477-10-10-10-10 4.477-10 10 4.477 10 10 10zm.79-12.697l-6.046 2.49c-1.065.416-.442.805-.442.805s.908.312 1.687.545c.778.234 1.193-.026 1.193-.026l3.66-2.465c1.297-.882.985-.156.674.156a98.947 98.947 0 01-2.725 2.595c-.415.363-.207.674-.026.83.529.447 1.772 1.26 2.337 1.629.157.102.262.17.284.187.13.104.856.571 1.298.468.442-.104.494-.701.494-.701l.648-4.074c.057-.379.115-.75.168-1.096.14-.91.255-1.651.273-1.914.078-.882-.856-.52-.856-.52s-2.024.831-2.62 1.09z" fill="#12266B"/></symbol><symbol fill="none" viewBox="0 0 24 24" id="time-icon" xmlns="http://www.w3.org/2000/svg"><path fill-rule="evenodd" clip-rule="evenodd" d="M12 2.25c-5.385 0-9.75 4.365-9.75 9.75s4.365 9.75 9.75 9.75 9.75-4.365 9.75-9.75S17.385 2.25 12 2.25zM3.75 12a8.25 8.25 0 1116.5 0 8.25 8.25 0 01-16.5 0zm9-4a.75.75 0 00-1.5 0v4c0 .25.125.485.334.624l3 2a.75.75 0 10.832-1.248l-2.666-1.777V8z" fill="#12266B"/></symbol><symbol fill="none" viewBox="0 0 48 48" id="video-play" xmlns="http://www.w3.org/2000/svg"><rect width="48" height="48" rx="24" fill="#fff"/><path d="M22.487 16.35l-.05-.032c-.637-.41-1.186-.763-1.642-.969-.47-.212-1.056-.369-1.634-.053-.577.315-.762.893-.838 1.403-.073.495-.073 1.147-.073 1.905v10.792c0 .758 0 1.41.073 1.905.076.51.261 1.088.838 1.403.578.316 1.164.159 1.634-.053.456-.207 1.005-.56 1.642-.97l.05-.031 8.302-5.337.047-.03c.549-.353 1.03-.662 1.367-.957.356-.311.698-.731.698-1.326 0-.595-.342-1.015-.699-1.326-.336-.295-.817-.604-1.366-.957l-.047-.03-8.302-5.337z" fill="#12266B"/></symbol><symbol fill="none" viewBox="0 0 64 64" id="vigvam-icon" xmlns="http://www.w3.org/2000/svg"><path d="M36.833 38.06l-1.502 1.505 1.502 1.505 1.503-1.505-1.503-1.504zM27.166 38.06l-1.502 1.505 1.502 1.505 1.503-1.505-1.503-1.505z" fill="#12266B"/><path d="M10.619 51.253v2.128h42.762v-2.128h-3.018L33.187 16.696l2.549-5.129-1.902-.948L32 14.309l-1.83-3.683-1.902.948 2.546 5.122-17.177 34.557H10.62zm25.378 0h-7.993v-4.087A4.004 4.004 0 0132 43.163a4.004 4.004 0 013.997 4.003v4.087zm9.23-5.557l2.763 5.557H38.12v-4.087c0-.412-.041-.825-.123-1.227l-.05-.243h7.28zM32 19.083l4.615 9.284h-9.23L32 19.083zm-5.672 11.412h11.344l1.46 2.94H24.868l1.461-2.94zm-2.519 5.067h16.382l3.979 8.006h-7.216l-.06-.08A6.073 6.073 0 0032 41.034c-1.94 0-3.723.894-4.894 2.452l-.06.081H19.83l3.98-8.006zm-5.037 10.133h7.28l-.05.244a6.18 6.18 0 00-.123 1.227v4.087H16.01l2.761-5.558z" fill="#12266B"/></symbol><symbol fill="none" viewBox="0 0 20 21" id="whatsapp-icon" xmlns="http://www.w3.org/2000/svg"><path fill-rule="evenodd" clip-rule="evenodd" d="M19.996 10.35c.003.064.004.13.004.197 0 5.382-4.414 9.761-9.839 9.761-1.66 0-3.304-.42-4.755-1.215l-.027-.015L0 20.788l1.74-5.143.011-.031-.017-.029a9.678 9.678 0 01-1.4-5.468C.565 4.885 4.88.788 10.163.788c5.378 0 9.698 4.178 9.833 9.512l.001.05zm-13.908.464c-.395-.528-.697-1.111-.852-1.644a2.92 2.92 0 01-.122-.801c0-1.08.528-1.639.783-1.908l.049-.052a.818.818 0 01.595-.279c.081 0 .162.005.24.011.099.007.186.012.284.007.121-.01.262-.018.42.36l.148.354.108.257.041.101c.21.507.417 1.003.457 1.08.069.141.075.249.018.36l-.011.022-.007.014c-.047.096-.082.168-.13.241a.986.986 0 01-.086.11l-.106.127-.004.006a4.11 4.11 0 01-.25.284c-.122.122-.29.29-.119.578.178.301.665 1.068 1.367 1.687.792.7 1.487.998 1.821 1.14l.002.001.147.065c.267.134.445.111.611-.077.113-.127.603-.696.776-.95.128-.19.234-.176.463-.094.211.076 1.363.637 1.653.78l.093.046.037.018h.002c.154.074.265.128.304.19.045.075.048.536-.149 1.085-.193.54-1.164 1.06-1.578 1.098a1.446 1.446 0 00-.198.036l-.015.003c-.299.075-.64.156-2.668-.637-1.458-.569-2.901-1.824-4.064-3.534l-.014-.02c-.02-.03-.034-.05-.046-.065z" fill="#12266B"/></symbol><symbol viewBox="0 0 24 24" id="wishlist-icon" xmlns="http://www.w3.org/2000/svg"><path fill-rule="evenodd" clip-rule="evenodd" d="M10.438 6.163a3.969 3.969 0 10-5.676 5.55l7.1 7.26a.194.194 0 00.277 0l7.099-7.26a3.969 3.969 0 10-5.676-5.55l-1.026 1.049a.75.75 0 01-1.072 0l-1.026-1.05zM3.69 5.114a5.469 5.469 0 017.82 0l.49.5.49-.5a5.469 5.469 0 017.82 7.647l-7.099 7.26c-.664.68-1.758.68-2.422 0l-7.1-7.26a5.469 5.469 0 010-7.647z"/></symbol><symbol fill="none" viewBox="0 0 24 18" id="youtube-icon" xmlns="http://www.w3.org/2000/svg"><path fill-rule="evenodd" clip-rule="evenodd" d="M21.39.9a3.007 3.007 0 012.116 2.116C24.02 4.894 24 8.808 24 8.808s0 3.895-.494 5.773a3.007 3.007 0 01-2.116 2.115c-1.878.494-9.39.494-9.39.494s-7.493 0-9.39-.514a3.007 3.007 0 01-2.116-2.115C0 12.703 0 8.788 0 8.788s0-3.894.494-5.772A3.069 3.069 0 012.61.88C4.488.386 12 .386 12 .386s7.512 0 9.39.514zm-5.535 7.888l-6.247 3.598V5.19l6.247 3.598z" fill="#12266B"/></symbol></svg>