<?xml version="1.0" standalone="no"?>
<!DOCTYPE svg PUBLIC "-//W3C//DTD SVG 1.1//EN" "http://www.w3.org/Graphics/SVG/1.1/DTD/svg11.dtd">
<!--Generator: Xara Designer (www.xara.com), SVG filter version: 6.7.0.0-->
<svg fill="none" fill-rule="evenodd" stroke="black" stroke-width="0.501" stroke-linejoin="bevel" stroke-miterlimit="10" font-family="Times New Roman" font-size="16" style="font-variant-ligatures:none" xmlns:xlink="http://www.w3.org/1999/xlink" xmlns="http://www.w3.org/2000/svg" version="1.1" overflow="visible" width="23.486pt" height="17.92pt" viewBox="0 -841.891 23.486 17.92">
 <defs>
	</defs>
 <g id="Layer 1" transform="scale(1 -1)">
  <g id="Group" fill="#12266b" fill-rule="nonzero" stroke-linejoin="round" stroke-linecap="round" stroke="none" stroke-width="0.62">
   <g id="Group_1">
    <path d="M 0,841.891 L 3.612,841.891 C 4.001,841.891 4.318,841.822 4.561,841.68 C 4.804,841.539 4.987,841.358 5.111,841.135 L 10.769,830.205 C 10.959,829.85 11.139,829.458 11.309,829.032 C 11.482,828.608 11.645,828.16 11.802,827.689 C 12.057,828.638 12.374,829.478 12.75,830.205 L 18.393,841.135 C 18.494,841.326 18.67,841.499 18.926,841.656 C 19.183,841.812 19.498,841.891 19.874,841.891 L 23.486,841.891 L 13.766,823.971 L 9.72,823.971 L 0,841.891 Z" marker-start="none" marker-end="none"/>
   </g>
  </g>
 </g>
</svg>
