<?xml version="1.0" standalone="no"?>
<!DOCTYPE svg PUBLIC "-//W3C//DTD SVG 20010904//EN"
 "http://www.w3.org/TR/2001/REC-SVG-20010904/DTD/svg10.dtd">
<svg version="1.0" xmlns="http://www.w3.org/2000/svg"
 width="750.000000pt" height="750.000000pt" viewBox="0 0 750.000000 750.000000"
 preserveAspectRatio="xMidYMid meet">
<metadata>
Created by potrace 1.14, written by Peter Selinger 2001-2017
</metadata>
<g transform="translate(0.000000,750.000000) scale(0.100000,-0.100000)"
fill="#000000" stroke="none">
<path d="M895 7482 c-52 -126 -77 -250 -78 -377 -1 -277 105 -527 307 -718 98
-94 252 -188 326 -201 68 -11 88 -16 131 -31 147 -52 251 -168 293 -325 23
-88 15 -249 -17 -333 -34 -87 -81 -158 -155 -231 -62 -61 -191 -155 -242 -176
l-30 -12 0 -2430 c0 -2304 1 -2429 18 -2435 23 -10 320 -10 398 -1 69 8 191
37 274 66 386 135 720 469 856 857 15 44 28 81 29 83 1 1 91 -21 201 -48 109
-28 213 -53 229 -56 17 -2 62 -11 100 -19 39 -8 112 -22 163 -31 l92 -16 0
-200 c0 -156 -3 -205 -15 -228 -14 -26 -99 -92 -365 -281 -115 -82 -143 -118
-142 -184 0 -54 22 -97 64 -127 33 -23 34 -23 352 -23 l319 0 2 82 c2 106 0
102 164 252 51 47 99 97 107 112 11 22 14 81 14 287 l0 259 68 -3 c37 -1 88
-3 114 -3 l47 -1 0 -284 c0 -246 -2 -287 -17 -316 -10 -20 -56 -63 -111 -105
-51 -39 -100 -84 -108 -99 -31 -60 -9 -142 47 -171 26 -14 101 -15 589 -13
547 3 560 3 587 24 15 11 37 33 48 48 20 27 21 40 24 520 l3 492 137 33 c157
38 391 114 533 173 90 37 97 42 89 62 -12 32 -82 190 -85 194 -2 2 -54 -17
-117 -41 -164 -66 -361 -129 -508 -162 -164 -38 -341 -70 -440 -80 -30 -3 -64
-8 -75 -10 -132 -27 -894 -27 -1035 0 -8 2 -44 6 -80 10 -69 7 -109 12 -150
20 -14 3 -42 7 -64 10 -21 2 -46 7 -55 9 -9 3 -34 7 -56 11 -22 3 -47 7 -55
10 -8 2 -31 6 -50 9 -19 3 -75 15 -125 26 -49 11 -101 23 -115 26 -32 7 -160
41 -225 60 l-50 14 0 352 0 353 27 81 c23 67 96 339 113 419 39 182 129 660
140 740 1 11 10 64 19 118 30 184 70 445 96 627 11 80 23 161 26 180 3 19 7
53 10 75 3 22 7 49 9 61 8 35 18 128 19 162 l1 33 -105 35 c-58 18 -108 34
-112 34 -9 0 -16 -26 -23 -90 -3 -30 -7 -64 -10 -75 -2 -11 -4 -31 -4 -45 -2
-53 -11 -55 -112 -20 -188 64 -358 136 -523 219 l-169 86 -107 315 c-59 173
-123 358 -143 411 -20 53 -37 99 -37 102 0 3 35 -16 78 -42 156 -97 354 -190
542 -255 77 -26 264 -73 322 -81 164 -23 165 -23 293 -24 l110 -1 30 -62 c76
-156 253 -349 424 -463 236 -157 475 -226 761 -220 80 2 159 6 175 9 163 33
283 72 399 131 100 51 220 134 294 204 98 92 83 87 143 50 75 -46 184 -129
249 -191 150 -143 243 -281 351 -523 28 -63 79 -257 94 -360 4 -27 9 -61 12
-75 2 -14 4 -92 4 -175 2 -358 -118 -706 -340 -985 -48 -60 -91 -109 -120
-137 l-23 -23 -18 23 c-9 12 -59 83 -111 157 -51 74 -113 162 -136 195 -23 33
-62 90 -88 126 l-46 67 53 79 c46 68 103 180 128 248 4 11 12 32 18 47 35 85
53 287 37 393 -11 66 -37 155 -46 155 -8 0 -200 -78 -205 -83 -1 -1 4 -27 12
-57 53 -203 -47 -503 -235 -705 -53 -57 -55 -62 -32 -94 l21 -29 -105 -83
c-58 -46 -122 -95 -143 -109 -50 -34 -47 -80 10 -153 l30 -38 -43 -37 c-24
-20 -54 -46 -67 -57 -29 -25 -34 -72 -16 -144 45 -174 193 -317 379 -365 151
-40 299 -1 456 121 66 50 70 52 81 33 7 -11 18 -20 25 -20 29 0 236 192 334
310 184 220 346 552 385 790 2 14 9 46 14 72 59 290 7 734 -121 1034 -140 329
-355 587 -644 769 -33 21 -62 39 -63 41 -4 3 29 77 38 84 26 22 119 278 134
370 3 19 9 46 12 60 15 70 15 290 0 385 -71 461 -349 832 -768 1024 -186 85
-368 121 -583 115 -713 -19 -1285 -605 -1287 -1317 0 -84 7 -175 18 -232 3
-11 7 -36 10 -55 3 -19 11 -43 16 -54 10 -18 6 -18 -88 -13 -105 7 -136 11
-224 29 -30 6 -60 12 -66 14 -97 18 -325 101 -471 171 -190 90 -462 259 -562
349 -127 114 -166 243 -101 334 17 24 83 60 110 60 5 0 45 -32 87 -71 107 -98
110 -99 170 -58 180 124 317 311 382 524 31 101 41 164 42 280 0 92 -13 182
-40 275 -40 136 -36 133 -142 100 -278 -86 -535 -327 -658 -617 -41 -96 -84
-232 -95 -300 -5 -30 -14 -20 -19 21 -10 72 -74 252 -124 349 -144 278 -379
477 -660 557 -57 17 -62 17 -68 2z m4010 -577 c337 -65 615 -269 780 -570 140
-257 169 -590 76 -876 -73 -222 -243 -446 -436 -574 -254 -169 -534 -225 -845
-169 -102 18 -302 100 -383 157 -64 44 -173 135 -202 168 -335 376 -399 893
-161 1314 159 284 435 483 761 551 11 2 52 7 90 10 39 4 71 7 72 8 8 7 181 -7
248 -19z m-2204 -2479 c115 -50 376 -147 477 -177 40 -12 42 -14 37 -43 -5
-34 -14 -95 -20 -139 -2 -15 -7 -47 -10 -70 -3 -23 -10 -67 -15 -97 -9 -51
-12 -72 -26 -170 -2 -19 -6 -42 -9 -50 -2 -8 -6 -35 -9 -60 -3 -25 -8 -55 -10
-66 -2 -12 -7 -39 -11 -60 -10 -66 -15 -95 -36 -214 -26 -151 -24 -139 -49
-265 -12 -60 -24 -123 -26 -140 -3 -16 -10 -48 -16 -70 l-11 -40 -10 50 c-11
63 -97 495 -102 515 -25 105 -45 191 -48 210 -16 82 -162 633 -231 868 -15 51
-20 81 -13 78 7 -3 68 -30 138 -60z m-707 -3364 c148 -102 69 -341 -109 -331
-209 12 -241 297 -40 360 39 12 109 -1 149 -29z"/>
<path d="M4608 6565 c-2 -2 -24 -6 -49 -9 -148 -20 -324 -110 -435 -223 -115
-119 -199 -274 -220 -408 -3 -22 -8 -43 -11 -47 -2 -5 -4 -56 -4 -115 0 -397
293 -739 681 -797 198 -29 410 17 566 125 76 52 195 180 242 259 46 78 97 215
108 295 50 346 -140 700 -453 846 -101 46 -204 70 -320 74 -56 2 -103 2 -105
0z m480 -476 c17 -20 43 -52 56 -71 28 -42 76 -159 76 -186 0 -27 17 -38 69
-47 l44 -7 -6 -77 c-24 -303 -291 -563 -589 -575 -21 0 -38 -5 -38 -9 0 -5 -4
-6 -9 -3 -4 3 -33 8 -62 11 -318 35 -569 298 -573 599 -1 77 0 79 24 82 14 2
45 8 70 14 44 9 78 14 195 28 154 18 551 4 695 -25 27 -5 27 -5 24 49 -5 65
-12 133 -19 173 -6 29 -10 45 -22 90 -5 18 -4 19 13 5 10 -8 34 -31 52 -51z"/>
<path d="M4350 5476 c0 -21 114 -119 164 -142 121 -55 241 -54 362 6 55 27
154 115 154 137 0 5 -153 8 -340 8 -209 0 -340 -3 -340 -9z"/>
</g>
</svg>
