<svg width="167" height="145" viewBox="0 0 167 145" fill="none" xmlns="http://www.w3.org/2000/svg">
<g clip-path="url(#clip0_312_2)">
<path d="M22.0801 53.0899C24.3501 44.4599 26.6101 35.8299 28.8801 27.1999C29.3501 25.4099 29.8501 23.5499 31.0401 22.1299C32.3601 20.5599 34.3401 19.7199 36.2401 18.9599C50.9401 13.0299 65.8001 7.48989 80.8001 2.34989C84.8001 0.979895 88.9801 -0.380105 93.1901 0.0998946C97.0701 0.549895 100.58 2.52989 103.94 4.51989C115.81 11.5399 127.35 19.1099 138.51 27.2099C140.21 28.4499 141.95 29.7499 143 31.5699C143.96 33.2399 144.25 35.1899 144.52 37.0899C148.42 64.8499 150.9 92.8099 151.93 120.82C151.3 122.56 148.74 122.83 147.22 121.76C145.71 120.69 148.01 112.44 147.39 110.7C139.65 89.0999 130.17 74.2199 121.14 52.3099" fill="#ED2F2F"/>
<path d="M129.38 42.0598L121.59 25.9098C121.48 25.6798 121.13 25.7998 121.2 26.0498C123.74 35.3898 125.31 54.7498 125.33 70.0298C122.78 68.5198 120.49 66.3698 115.28 63.5798C97.2201 53.8798 78.4401 49.4298 58.0201 51.1898C59.3101 49.9598 59.8801 49.3598 61.1701 48.1298C49.2701 46.2398 43.5601 46.0898 31.5301 46.7398C29.5101 46.8498 19.7401 50.0198 16.6001 52.8998L124.97 81.7398C124.74 84.7198 126.33 78.1698 125.87 79.8898L132.67 73.0898C135.9 58.6098 138.81 62.9598 132.91 49.3498" fill="#DD281F"/>
<path d="M128.82 59.22C122.23 53.83 131.45 35.42 125.63 37.97C122 39.56 109.58 43.68 100.73 43.83C103.47 42.66 104.71 42.09 107.44 40.92C86.6801 38.33 74.2501 36.5 52.6701 40.02C46.2301 41.07 30.9701 44.99 24.3501 47.72" fill="#DD281F"/>
<path d="M148.23 67.77L147.16 109.91L147.13 110.02C147.21 110.25 147.3 110.47 147.38 110.7C148.01 112.44 145.7 120.7 147.21 121.76C148.72 122.83 151.29 122.56 151.92 120.82C151.27 103.11 150.04 85.41 148.23 67.77Z" fill="#DD281F"/>
<path d="M136.28 58.08C131.44 51.16 122.34 49.36 113.9 49.6C115.65 47.89 116.41 47.94 118.16 46.24C108.48 48.63 85.9101 43.83 75.9601 43.21C55.1201 41.91 32.9701 44.91 26.9301 46.27C27.8601 45.25 29.6501 44.23 31.2601 43.18C24.5501 43.8 20.1301 44.48 14.3801 46.81C12.7601 47.47 9.77007 48.94 8.32007 49.93C0.930072 54.94 -3.22993 64.59 3.11007 78.42C3.22007 75.25 4.07007 74.23 4.75007 73.72C4.41007 77.74 6.79007 81.14 8.04007 82.5C12.4601 87.32 21.0801 87.7 20.7301 87.48C19.2601 86.57 18.2901 85.27 18.2901 84.25C26.2901 87.08 38.2501 89.23 51.0701 90.41C50.0401 89.61 49.0601 88.75 48.1901 87.78C54.3801 88.44 58.9101 90.57 69.5001 91.55C84.9201 92 96.8401 90.73 106.15 87.7L101.62 85.32C106.92 81.55 128.7 89.06 133.6 82.69C132.67 82.15 124.31 83.23 134.59 76.09C138.41 73.12 141.81 65.98 136.28 58.08Z" fill="#EDEDED"/>
<path d="M136.28 58.0801C131.95 51.8901 124.22 49.8001 116.59 49.6001C122.61 50.9601 135.77 58.2301 129.82 70.1401C125.74 78.3001 110.42 78.9601 108.69 79.0701C99.6002 79.6501 90.5102 80.2301 81.4202 80.8201C82.9802 81.5801 88.1602 83.8301 89.7202 84.5901C83.2002 88.2001 71.9302 87.8601 64.4802 87.6101C57.0402 87.3601 49.7102 85.7701 42.4302 84.1801C42.9202 84.8801 43.4202 85.5801 43.9102 86.2801C33.4002 85.9801 22.9302 84.0401 13.0102 80.5401C13.2002 81.7001 13.7102 82.8101 14.4802 83.7001C6.55016 80.5601 4.74016 73.7101 4.74016 73.7101C4.40016 77.7301 6.78016 81.1301 8.03016 82.4901C12.4502 87.3101 21.0702 87.6901 20.7202 87.4701C19.2502 86.5601 18.2802 85.2601 18.2802 84.2401C26.2802 87.0701 38.2402 89.2201 51.0602 90.4001C50.0302 89.6001 49.0502 88.7401 48.1802 87.7701C54.3702 88.4301 58.9002 90.5601 69.4902 91.5401C84.9102 91.9901 96.8302 90.7201 106.14 87.6901L101.61 85.3101C106.91 81.5401 128.69 89.0501 133.59 82.6801C132.66 82.1401 124.3 83.2201 134.58 76.0801C138.41 73.1201 141.81 65.9801 136.28 58.0801Z" fill="#DDDDDD"/>
<path d="M148.02 107.75C150.49 107.03 157 108.24 159.17 109.63C161.74 111.29 163.33 113.62 164.6 115.86C163.58 115.83 162.57 115.81 161.55 115.78C164.92 118.46 166.15 123.42 166.05 127.73C165.95 132.04 165.41 134.08 161.55 138.58C157.56 142.18 156.36 142.75 152.06 143.79C147.76 144.83 142.56 144.13 139.48 140.95C140.41 140.68 141.35 140.41 142.28 140.14C134.17 137.02 128.98 127.69 130.62 119.15C132.24 122.02 132.47 123.04 135.57 124.16C134.22 122.79 134.71 116.35 138.68 112.56C140.81 110.54 143.59 108.74 146.42 107.98" fill="#EDEDED"/>
<path d="M166.41 127.26C166.3 122.95 164.92 118.46 161.55 115.78C161.55 115.78 162.24 117.22 162.89 119.34C163.22 122.1 162.57 124.99 161.01 127.29C162.04 127.06 163.04 126.73 164.01 126.32C163.99 128.9 163.38 131.52 161.61 133.62C157.76 138.18 149.71 139.99 146.5 138.14C147.23 137.04 147.59 135.69 147.5 134.37C145.24 135.58 142.38 135.28 140.11 134.08C137.84 132.88 136.41 131.7 134.74 129.75C133.08 127.82 131.55 125.91 130.58 119.47C129.14 127.91 134.28 137.05 142.29 140.13C141.36 140.4 140.42 140.67 139.49 140.94C142.56 144.13 147.41 145.07 151.75 144.21C156.06 143.36 158.36 142.48 162.07 138.97C166.52 133.51 166.5 131.04 166.41 127.26Z" fill="#DDDDDD"/>
</g>
<defs>
<clipPath id="clip0_312_2">
<rect width="166.43" height="144.51" fill="white"/>
</clipPath>
</defs>
</svg>
