<svg width="114" height="19" viewBox="0 0 114 19" fill="none" xmlns="http://www.w3.org/2000/svg">
<path d="M0.806641 18.8897H113.702C112.27 17.4577 106.064 11.7294 101.291 10.0586C96.5172 8.38785 90.4651 13.5587 87.1236 5.92083C83.782 -1.71706 72.4304 5.02012 67.4182 2.39464C62.4059 -0.230833 52.4239 -0.946658 48.1276 2.39486C43.8314 5.73637 38.1229 9.30237 32.1559 8.82501C26.1889 8.34765 24.6942 10.2031 15.147 12.3512C7.50927 14.0697 3.59126 15.7074 0.806641 18.8897Z" fill="url(#paint0_linear_110_3280)"/>
<path d="M55.2904 18.8897H94.234C93.74 18.3957 91.5993 16.4197 89.9527 15.8434C88.306 15.2671 86.2183 17.0508 85.0656 14.4161C83.913 11.7813 79.9972 14.1054 78.2682 13.1997C76.5392 12.294 73.0959 12.0471 71.6139 13.1998C70.1319 14.3524 68.1627 15.5825 66.1044 15.4179C64.0461 15.2532 63.5305 15.8932 60.2372 16.6342C57.6025 17.227 56.251 17.792 55.2904 18.8897Z" fill="#D5E0E6"/>
<defs>
<linearGradient id="paint0_linear_110_3280" x1="57.2544" y1="3.59017" x2="57.2544" y2="18.89" gradientUnits="userSpaceOnUse">
<stop stop-color="#F8F8F8"/>
<stop offset="1" stop-color="#F4F4F4" stop-opacity="0.8"/>
</linearGradient>
</defs>
</svg>
