<svg width="61" height="18" viewBox="0 0 61 18" fill="none" xmlns="http://www.w3.org/2000/svg">
<path d="M9.82347 3.42322C8.5612 3.67888 6.90359 5.77529 6.23257 6.79153C5.74286 7.25865 6.23257 8.4634 6.72228 8.61092C7.21198 8.75843 8.95297 8.4634 9.82347 7.70123C10.694 6.93906 12.9791 6.79153 14.0672 6.79153C15.1554 6.79153 15.5362 7.4062 15.9171 7.92251C16.2979 8.43882 20.2697 9.5206 20.8137 9.3485C21.3578 9.1764 21.6298 8.83219 21.7387 7.92251C21.8475 7.01282 24.0238 6.47193 24.2414 6.32441C24.459 6.17689 29.8997 6.27524 28.6484 7.18492C27.397 8.09461 28.3219 7.82416 28.6484 8.4634C28.9748 9.10264 28.8116 10.3319 29.4101 11.5612C30.0085 12.7906 33.545 14.2165 33.9259 14.2903C34.3067 14.3641 36.5918 13.7494 36.211 12.9627C35.8301 12.1759 37.8432 10.7745 38.0064 10.3319C38.137 9.9779 39.8381 9.98774 40.6723 10.0369C41.7968 10.0451 44.1 9.95332 44.3176 9.5206C44.5897 8.97971 45.2969 8.66009 46.3851 8.21754C47.4732 7.77499 48.5614 8.19295 49.4863 8.21754C50.4112 8.24213 50.6288 9.88939 51.0097 10.3319C51.3906 10.7745 52.4243 11.1433 54.7638 10.3319C57.1033 9.5206 56.1784 6.32441 57.0489 5.29179C57.9194 4.25918 56.124 3.42322 55.8519 3.22656C55.5799 3.0299 52.8595 2.2677 50.6288 2.41522C48.3982 2.56273 44.4808 2.14477 40.4003 1.70222C36.3198 1.25968 35.1772 1.70222 32.7289 1.55469C30.2806 1.40716 27.9955 1.48095 25.4383 1.70222C22.8812 1.9235 19.1815 1.97267 16.2435 1.94808C13.3055 1.9235 11.4013 3.10363 9.82347 3.42322Z" fill="url(#paint0_linear_109_2895)"/>
<path d="M16.1346 4.99666C14.35 4.87862 8.9348 6.12765 6.45026 6.76693C6.22071 6.8256 5.30768 7.25865 5.63412 7.89789C5.96056 8.53712 6.83108 8.83216 7.81041 8.78299C8.78974 8.73381 10.1515 8.03422 10.8588 7.59167C11.5661 7.14912 13.7952 6.4473 14.176 6.93903C14.3809 7.20355 16.1782 8.43575 17.9039 8.93777C19.3861 9.36894 21.1664 9.6215 21.5919 9.25827C21.9068 8.98949 21.8161 7.52909 22.6322 7.08654C23.4483 6.64399 25.7004 6.60031 26.4621 6.50197C27.2238 6.40363 28.1587 7.3324 28.4307 7.25865C28.7028 7.18489 29.2468 6.12769 29.138 5.73431C29.0292 5.34093 28.1587 5.14421 27.3426 4.99666C26.5265 4.84912 24.3502 5.41465 23.1532 5.56217C21.9563 5.70969 18.3654 5.14422 16.1346 4.99666Z" fill="#D5E0E6"/>
<path d="M32.4256 12.6184C31.5124 12.5594 29.5957 10.3482 28.8528 9.34838C28.9675 10.2817 29.4384 12.343 29.6558 12.6184C29.9276 12.9626 33.4584 14.241 33.8932 14.2902C34.328 14.3394 35.089 14.3522 35.089 14.1555C35.089 13.9588 36.2305 13.6951 36.2848 13.4247C36.3392 13.1542 36.4909 12.7413 36.5996 12.2495C36.7083 11.7577 37.1568 11.6205 37.5916 11.2025C38.0265 10.7846 38.2827 10.7412 39.859 10.3479C41.4353 9.95453 41.068 10.0122 42.4812 10.0122C43.8945 10.0122 44.275 9.54512 45.0359 8.95501C45.7969 8.3649 47.6993 8.19284 48.6777 8.21742C49.6561 8.24201 50.417 8.88125 50.3627 9.34838C50.3083 9.81552 51.5499 10.9579 52.0934 11.0316C52.637 11.1054 55.2531 10.3318 56.0141 10.0122C56.6229 9.75657 56.4685 8.04534 56.4504 7.45524C55.9974 7.45524 54.7545 7.4995 53.4065 7.67653C51.7215 7.89782 49.3843 7.45524 47.6993 7.45524C46.0143 7.45524 43.9488 8.06996 43.6771 8.365C43.4053 8.66003 39.4374 9.22548 37.9698 9.15172C36.5022 9.07796 35.6326 9.25006 35.089 10.0122C34.5455 10.7744 33.5671 12.6921 32.4256 12.6184Z" fill="#D5E0E6"/>
<defs>
<linearGradient id="paint0_linear_109_2895" x1="31.6574" y1="1.47794" x2="31.6574" y2="14.2963" gradientUnits="userSpaceOnUse">
<stop stop-color="#F5F5F5"/>
<stop offset="1" stop-color="#D5E0E6"/>
</linearGradient>
</defs>
</svg>
